<svg width="50" height="51" viewBox="0 0 50 51" fill="none" xmlns="http://www.w3.org/2000/svg">
<path fill-rule="evenodd" clip-rule="evenodd" d="M25 50.5155C38.8071 50.5155 50 39.2072 50 25.2577C50 11.3083 38.8071 0 25 0C11.1929 0 0 11.3083 0 25.2577C0 39.2072 11.1929 50.5155 25 50.5155Z" fill="#E3FCFF"/>
<path d="M30.53 20.9838C30.46 20.9737 30.39 20.9737 30.32 20.9838C28.77 20.9333 27.54 19.6502 27.54 18.0741C27.54 16.4677 28.83 15.1543 30.43 15.1543C32.02 15.1543 33.32 16.4576 33.32 18.0741C33.31 19.6502 32.08 20.9333 30.53 20.9838Z" fill="black"/>
<path d="M33.79 27.9851C32.67 28.7428 31.1 29.0257 29.65 28.8338C30.03 28.0053 30.23 27.0859 30.24 26.116C30.24 25.1057 30.02 24.1459 29.6 23.3074C31.08 23.1053 32.65 23.3882 33.78 24.1459C35.36 25.1967 35.36 26.9243 33.79 27.9851Z" fill="black"/>
<path d="M19.44 20.9838C19.51 20.9737 19.58 20.9737 19.65 20.9838C21.2 20.9333 22.43 19.6502 22.43 18.0741C22.43 16.4576 21.14 15.1543 19.54 15.1543C17.95 15.1543 16.66 16.4576 16.66 18.0741C16.66 19.6502 17.89 20.9333 19.44 20.9838Z" fill="black"/>
<path d="M19.55 26.1162C19.55 27.0962 19.76 28.0257 20.14 28.8643C18.73 29.0158 17.26 28.7127 16.18 27.9954C14.6 26.9346 14.6 25.2069 16.18 24.1461C17.25 23.4187 18.76 23.1257 20.18 23.2874C19.77 24.136 19.55 25.0958 19.55 26.1162Z" fill="black"/>
<path d="M25.12 29.1674C25.04 29.1573 24.95 29.1573 24.86 29.1674C23.02 29.1068 21.55 27.5812 21.55 25.702C21.56 23.7824 23.09 22.2266 25 22.2266C26.9 22.2266 28.44 23.7824 28.44 25.702C28.43 27.5812 26.97 29.1068 25.12 29.1674Z" fill="black"/>
<path d="M21.87 31.2586C20.36 32.279 20.36 33.9561 21.87 34.9664C23.59 36.1283 26.41 36.1283 28.13 34.9664C29.64 33.946 29.64 32.2689 28.13 31.2586C26.42 30.0967 23.6 30.0967 21.87 31.2586Z" fill="black"/>
</svg>
