<svg width="40" height="40" viewBox="0 0 40 40" fill="none" xmlns="http://www.w3.org/2000/svg">
<path d="M34.3759 4.375H5.62585C4.93445 4.375 4.37585 4.93359 4.37585 5.625V34.375C4.37585 35.0664 4.93445 35.625 5.62585 35.625H34.3759C35.0673 35.625 35.6259 35.0664 35.6259 34.375V5.625C35.6259 4.93359 35.0673 4.375 34.3759 4.375ZM30.7665 13.4961H28.2704C26.3134 13.4961 25.9345 14.4258 25.9345 15.793V18.8047H30.6063L29.997 23.5195H25.9345V35.625H21.0634V23.5234H16.9891V18.8047H21.0634V15.3281C21.0634 11.293 23.5282 9.09375 27.1298 9.09375C28.8563 9.09375 30.3368 9.22266 30.7704 9.28125V13.4961H30.7665Z" fill="white"/>
</svg>
