<svg width="34" height="34" viewBox="0 0 34 34" fill="none" xmlns="http://www.w3.org/2000/svg">
<path d="M23.9833 0.333374H10.0166C3.94998 0.333374 0.333313 3.95004 0.333313 10.0167V23.9667C0.333313 30.05 3.94998 33.6667 10.0166 33.6667H23.9666C30.0333 33.6667 33.65 30.05 33.65 23.9834V10.0167C33.6666 3.95004 30.05 0.333374 23.9833 0.333374ZM19.9833 22C20.4666 22.4834 20.4666 23.2834 19.9833 23.7667C19.7333 24.0167 19.4166 24.1334 19.1 24.1334C18.7833 24.1334 18.4666 24.0167 18.2166 23.7667L12.3333 17.8834C11.85 17.4 11.85 16.6 12.3333 16.1167L18.2166 10.2334C18.7 9.75004 19.5 9.75004 19.9833 10.2334C20.4666 10.7167 20.4666 11.5167 19.9833 12L14.9833 17L19.9833 22Z" fill="white"/>
</svg>
