<svg width="40" height="40" viewBox="0 0 40 40" fill="none" xmlns="http://www.w3.org/2000/svg">
<path d="M36.2508 9.93361C35.0555 10.4492 33.7547 10.8203 32.4149 10.9649C33.8059 10.1384 34.8476 8.83283 35.3445 7.29298C34.0392 8.0695 32.6092 8.61401 31.118 8.90236C30.4947 8.23606 29.7409 7.70525 28.9035 7.34301C28.0662 6.98078 27.1632 6.79488 26.2508 6.79689C22.5594 6.79689 19.5906 9.78908 19.5906 13.461C19.5906 13.9766 19.6531 14.4922 19.7547 14.9883C14.2274 14.6992 9.29767 12.0586 6.02032 8.01564C5.42316 9.03562 5.11022 10.197 5.11407 11.3789C5.11407 13.6914 6.28986 15.7305 8.08282 16.9297C7.0262 16.8881 5.99432 16.5977 5.07111 16.082V16.1641C5.07111 19.4024 7.36017 22.086 10.4109 22.7031C9.83813 22.8519 9.24887 22.928 8.65704 22.9297C8.22345 22.9297 7.81329 22.8867 7.39923 22.8281C8.24298 25.4688 10.7 27.3867 13.6258 27.4492C11.3367 29.2422 8.46954 30.2969 5.35626 30.2969C4.79767 30.2969 4.28204 30.2774 3.74689 30.2149C6.70001 32.1094 10.2039 33.2031 13.9774 33.2031C26.2274 33.2031 32.9305 23.0547 32.9305 14.2461C32.9305 13.957 32.9305 13.668 32.9109 13.3789C34.2078 12.4297 35.3445 11.2539 36.2508 9.93361Z" fill="white"/>
</svg>
