<svg width="50" height="51" viewBox="0 0 50 51" fill="none" xmlns="http://www.w3.org/2000/svg">
<path fill-rule="evenodd" clip-rule="evenodd" d="M25 50.5155C38.8071 50.5155 50 39.2072 50 25.2577C50 11.3083 38.8071 0 25 0C11.1929 0 0 11.3083 0 25.2577C0 39.2072 11.1929 50.5155 25 50.5155Z" fill="#E3FCFF"/>
<path d="M29.75 16.7303V15.1542C29.75 14.74 29.41 14.3965 29 14.3965C28.59 14.3965 28.25 14.74 28.25 15.1542V16.6697H21.75V15.1542C21.75 14.74 21.41 14.3965 21 14.3965C20.59 14.3965 20.25 14.74 20.25 15.1542V16.7303C17.55 16.9829 16.24 18.6095 16.04 21.0241C16.02 21.3171 16.26 21.5596 16.54 21.5596H33.46C33.75 21.5596 33.99 21.307 33.96 21.0241C33.76 18.6095 32.45 16.9829 29.75 16.7303Z" fill="black"/>
<path d="M32 28.2886C29.79 28.2886 28 30.097 28 32.3298C28 33.0875 28.21 33.8049 28.58 34.411C29.27 35.583 30.54 36.371 32 36.371C33.46 36.371 34.73 35.583 35.42 34.411C35.79 33.8049 36 33.0875 36 32.3298C36 30.097 34.21 28.2886 32 28.2886ZM34.07 31.8954L31.94 33.8857C31.8 34.017 31.61 34.0877 31.43 34.0877C31.24 34.0877 31.05 34.017 30.9 33.8655L29.91 32.8653C29.62 32.5723 29.62 32.0873 29.91 31.7943C30.2 31.5014 30.68 31.5014 30.97 31.7943L31.45 32.2793L33.05 30.784C33.35 30.5012 33.83 30.5214 34.11 30.8245C34.39 31.1275 34.37 31.6024 34.07 31.8954Z" fill="black"/>
<path d="M33 23.0752H17C16.45 23.0752 16 23.5298 16 24.0855V30.309C16 33.3399 17.5 35.3606 21 35.3606H25.93C26.62 35.3606 27.1 34.6836 26.88 34.0269C26.68 33.441 26.51 32.7944 26.51 32.3296C26.51 29.2684 28.98 26.7729 32.01 26.7729C32.3 26.7729 32.59 26.7931 32.87 26.8436C33.47 26.9346 34.01 26.4597 34.01 25.8535V24.0956C34 23.5298 33.55 23.0752 33 23.0752ZM22.21 31.5315C22.02 31.7133 21.76 31.8245 21.5 31.8245C21.24 31.8245 20.98 31.7133 20.79 31.5315C20.61 31.3395 20.5 31.0768 20.5 30.8142C20.5 30.5515 20.61 30.2888 20.79 30.0968C20.89 30.0059 20.99 29.9352 21.12 29.8847C21.49 29.723 21.93 29.814 22.21 30.0968C22.39 30.2888 22.5 30.5515 22.5 30.8142C22.5 31.0768 22.39 31.3395 22.21 31.5315ZM22.21 27.9954C22.16 28.0358 22.11 28.0762 22.06 28.1166C22 28.1571 21.94 28.1874 21.88 28.2076C21.82 28.2379 21.76 28.2581 21.7 28.2682C21.63 28.2783 21.56 28.2884 21.5 28.2884C21.24 28.2884 20.98 28.1773 20.79 27.9954C20.61 27.8034 20.5 27.5408 20.5 27.2781C20.5 27.0154 20.61 26.7527 20.79 26.5608C21.02 26.3284 21.37 26.2173 21.7 26.288C21.76 26.2981 21.82 26.3183 21.88 26.3486C21.94 26.3688 22 26.3991 22.06 26.4395C22.11 26.4799 22.16 26.5203 22.21 26.5608C22.39 26.7527 22.5 27.0154 22.5 27.2781C22.5 27.5408 22.39 27.8034 22.21 27.9954ZM25.71 27.9954C25.52 28.1773 25.26 28.2884 25 28.2884C24.74 28.2884 24.48 28.1773 24.29 27.9954C24.11 27.8034 24 27.5408 24 27.2781C24 27.0154 24.11 26.7527 24.29 26.5608C24.67 26.1869 25.34 26.1869 25.71 26.5608C25.89 26.7527 26 27.0154 26 27.2781C26 27.5408 25.89 27.8034 25.71 27.9954Z" fill="black"/>
</svg>
