<svg width="50" height="51" viewBox="0 0 50 51" fill="none" xmlns="http://www.w3.org/2000/svg">
<path fill-rule="evenodd" clip-rule="evenodd" d="M25 50.5155C38.8071 50.5155 50 39.2072 50 25.2577C50 11.3083 38.8071 0 25 0C11.1929 0 0 11.3083 0 25.2577C0 39.2072 11.1929 50.5155 25 50.5155Z" fill="#E3FCFF"/>
<path d="M33.98 23.9443C33.76 20.0041 30.87 16.7205 27.01 16.0537C26.95 15.2758 26.31 14.6494 25.52 14.6494H24.52C23.73 14.6494 23.1 15.2657 23.03 16.0436C19.15 16.6902 16.24 19.9838 16.02 23.9443C15.31 24.0655 14.77 24.6818 14.77 25.4294V26.4397C14.77 27.2783 15.44 27.9552 16.27 27.9552H17.27C18.1 27.9552 18.77 27.2783 18.77 26.4397V25.4294C18.77 24.6818 18.23 24.0655 17.52 23.9443C17.73 20.7921 20.02 18.1754 23.08 17.5692C23.25 18.2158 23.83 18.6907 24.52 18.6907H25.52C26.21 18.6907 26.78 18.2158 26.96 17.5793C30 18.1956 32.27 20.8123 32.48 23.9443C31.77 24.0655 31.23 24.6818 31.23 25.4294V26.4397C31.23 27.2783 31.9 27.9552 32.73 27.9552H33.73C34.56 27.9552 35.23 27.2783 35.23 26.4397V25.4294C35.23 24.6818 34.69 24.0554 33.98 23.9443Z" fill="black"/>
<path d="M28.77 29.8544L27.13 31.3194H22.88L21.24 29.8544C20.29 29.0664 20.29 28.4602 21.01 27.5307L23.9 23.833C24.1 23.5804 24.33 23.4086 24.59 23.3177C24.86 23.2268 25.15 23.2268 25.43 23.3177C25.68 23.4086 25.91 23.5804 26.12 23.833L29 27.5206C29.73 28.4501 29.69 29.026 28.77 29.8544Z" fill="black"/>
<path d="M26.32 35.3607H23.73C22.81 35.3607 22.12 34.603 22.3 33.7947L22.61 32.3904C22.67 32.1075 22.92 31.9155 23.2 31.9155H26.85C27.13 31.9155 27.37 32.1075 27.44 32.3904L27.75 33.7947C27.94 34.6535 27.3 35.3607 26.32 35.3607Z" fill="black"/>
</svg>
